<svg width="14" height="14" viewBox="0 0 14 14" xmlns="http://www.w3.org/2000/svg" xmlns:xlink="http://www.w3.org/1999/xlink">
    <defs>
        <path id="a" d="M0 6.2V0h10v12.4H0z" />
    </defs>
    <g transform="translate(2 1)" fill="none" fill-rule="evenodd">
        <mask id="b" fill="#fff">
            <use xlink:href="#a" />
        </mask>
        <path d="M5 7c-1.104 0-2-.896-2-2s.896-2 2-2 2 .896 2 2-.896 2-2 2m5-2c0-2.76-2.238-5-5-5S0 2.24 0 5c0 1.13.39 2.162 1.022 3H1l3.22 4.023c.4.5 1.16.5 1.56 0L9 8h-.022C9.61 7.162 10 6.13 10 5" fill="#FFF" mask="url(#b)" />
    </g>
</svg>