<?xml version="1.0" standalone="no"?><!DOCTYPE svg PUBLIC "-//W3C//DTD SVG 1.1//EN" "http://www.w3.org/Graphics/SVG/1.1/DTD/svg11.dtd"><svg t="1530034984390" class="icon" style="" viewBox="0 0 1024 1024" version="1.1" xmlns="http://www.w3.org/2000/svg" p-id="2020" data-spm-anchor-id="a313x.7781069.0.i1" xmlns:xlink="http://www.w3.org/1999/xlink" width="80" height="80"><defs><style type="text/css"></style></defs><path d="M504.6 971.4c-120 0-232.6-46.8-317.4-131.6S55.6 642.2 55.6 522.4c0-120 46.8-232.6 131.6-317.4S384.8 73.4 504.6 73.4C696.2 73.4 867 195 929.2 376.2c3.6 10.4-2 21.8-12.4 25.4-10.4 3.6-21.8-2-25.4-12.4-56.8-165-212.2-275.8-386.8-275.8-225.6 0-409 183.4-409 409s183.4 409 409 409 409-183.4 409-409c0-11 9-20 20-20s20 9 20 20c0 120-46.8 232.6-131.6 317.4S624.6 971.4 504.6 971.4z" fill="#008de1" p-id="2021"></path><path d="M918.4 414.6H652c-11 0-20-9-20-20s9-20 20-20h246.4V128.4c0-11 9-20 20-20s20 9 20 20v266.4c0 10.8-9 19.8-20 19.8z" fill="#008de1" p-id="2022"></path></svg>