<?xml version="1.0" standalone="no"?><!DOCTYPE svg PUBLIC "-//W3C//DTD SVG 1.1//EN" "http://www.w3.org/Graphics/SVG/1.1/DTD/svg11.dtd"><svg t="1529702699788" class="icon" style="" viewBox="0 0 1024 1024" version="1.1" xmlns="http://www.w3.org/2000/svg" p-id="5365" xmlns:xlink="http://www.w3.org/1999/xlink" width="120" height="120"><defs><style type="text/css"></style></defs><path d="M798.72921799 859.61408804a29.10541778 29.10541778 0 0 1-14.55270923-3.92013595L526.51170433 706.47411444a50.58885393 50.58885393 0 0 0-25.1398048 0L239.69600437 855.78490687a29.10541778 29.10541778 0 0 1-14.42537242 3.82918116 37.07302583 37.07302583 0 0 1-32.08872304-18.318222A38.34638789 38.34638789 0 0 1 191.83578343 804.70489908L477.93294294 185.7145253q0.38200841-0.83678092 0.82768522-1.6462748a37.29131606 37.29131606 0 0 1 65.71457612 0q0.42748614 0.80039888 0.80949456 1.61898844L832.15497085 804.70489908a38.34638789 38.34638789 0 0 1-1.33703047 36.60915765 37.07302583 37.07302583 0 0 1-32.08872238 18.3000313zM511.64065509 251.52915119L271.80291811 770.43326964l203.7379232-116.30342936a29.10541778 29.10541778 0 0 1 5.74832028-2.50124708 108.59958928 108.59958928 0 0 1 65.48718954 0.13643183 29.10541778 29.10541778 0 0 1 5.79379734 2.55581911l199.19020155 115.34840799z" p-id="5366" fill="#ffffff"></path><path d="M513.05954397 569.17840214m-58.9202797 0a58.92027968 58.92027968 0 1 0 117.84055938 0 58.92027968 58.92027968 0 1 0-117.84055938 0Z" p-id="5367" fill="#ffffff"></path></svg>